<mxfile host="65bd71144e">
    <diagram id="Gn0iaHIO_Kdy-sjLcY_n" name="Page-1">
        <mxGraphModel dx="1233" dy="804" grid="0" gridSize="10" guides="1" tooltips="1" connect="1" arrows="1" fold="1" page="1" pageScale="1" pageWidth="3300" pageHeight="2339" math="0" shadow="0">
            <root>
                <mxCell id="0"/>
                <mxCell id="1" parent="0"/>
                <mxCell id="2" value="Divar Login" style="swimlane;childLayout=stackLayout;resizeParent=1;resizeParentMax=0;horizontal=0;startSize=51;horizontalStack=0;fillColor=#60a917;strokeColor=#2D7600;fontColor=#ffffff;fontSize=25;" parent="1" vertex="1">
                    <mxGeometry x="24" y="69" width="3190" height="1312" as="geometry"/>
                </mxCell>
                <mxCell id="5" value="Customer" style="swimlane;startSize=34;horizontal=0;fontSize=25;" parent="2" vertex="1">
                    <mxGeometry x="51" width="3139" height="342" as="geometry"/>
                </mxCell>
                <mxCell id="58" value="" style="edgeStyle=orthogonalEdgeStyle;html=1;fontSize=25;startSize=20;" parent="5" source="56" target="57" edge="1">
                    <mxGeometry relative="1" as="geometry"/>
                </mxCell>
                <mxCell id="56" value="&lt;font style=&quot;font-size: 25px;&quot;&gt;شروع&lt;/font&gt;" style="ellipse;shape=doubleEllipse;whiteSpace=wrap;html=1;aspect=fixed;fontSize=25;startSize=20;fillColor=#1ba1e2;fontColor=#ffffff;strokeColor=#006EAF;" parent="5" vertex="1">
                    <mxGeometry x="63" y="69" width="124" height="124" as="geometry"/>
                </mxCell>
                <mxCell id="57" value="&lt;span style=&quot;font-size: 30px;&quot;&gt;صفحه چت&lt;/span&gt;" style="whiteSpace=wrap;html=1;fontSize=25;fillColor=#60a917;strokeColor=#2D7600;fontColor=#ffffff;startSize=20;" parent="5" vertex="1">
                    <mxGeometry x="369" y="90" width="232" height="86" as="geometry"/>
                </mxCell>
                <mxCell id="59" value="چت" style="text;html=1;strokeColor=none;fillColor=none;align=center;verticalAlign=middle;whiteSpace=wrap;rounded=0;fontSize=30;startSize=20;" parent="5" vertex="1">
                    <mxGeometry x="243" y="96" width="60" height="30" as="geometry"/>
                </mxCell>
                <mxCell id="106" value="کاربر وارد صفحه میشود" style="whiteSpace=wrap;html=1;fontSize=25;fillColor=#60a917;strokeColor=#2D7600;fontColor=#ffffff;startSize=20;" parent="5" vertex="1">
                    <mxGeometry x="2884" y="119" width="225" height="69" as="geometry"/>
                </mxCell>
                <mxCell id="41" value="FrantEnd" style="swimlane;startSize=34;horizontal=0;fontSize=25;" parent="2" vertex="1">
                    <mxGeometry x="51" y="342" width="3139" height="334" as="geometry"/>
                </mxCell>
                <mxCell id="77" value="" style="edgeStyle=orthogonalEdgeStyle;html=1;fontSize=30;startSize=20;" parent="41" source="74" target="76" edge="1">
                    <mxGeometry relative="1" as="geometry"/>
                </mxCell>
                <mxCell id="74" value="&lt;span style=&quot;font-size: 30px;&quot;&gt;شرط&lt;/span&gt;&lt;br style=&quot;font-size: 30px;&quot;&gt;&lt;span style=&quot;font-size: 30px;&quot;&gt;/divar?state&lt;br&gt;ok/cancel&lt;br&gt;&lt;/span&gt;" style="rhombus;whiteSpace=wrap;html=1;fontSize=25;fillColor=#a20025;strokeColor=#6F0000;fontColor=#ffffff;startSize=20;" parent="41" vertex="1">
                    <mxGeometry x="1255" y="7" width="227" height="198" as="geometry"/>
                </mxCell>
                <mxCell id="76" value="بازگشت به چت دیوار" style="ellipse;whiteSpace=wrap;html=1;fontSize=25;fillColor=#1ba1e2;strokeColor=#006EAF;fontColor=#ffffff;startSize=20;" parent="41" vertex="1">
                    <mxGeometry x="1822" y="27" width="164" height="158" as="geometry"/>
                </mxCell>
                <mxCell id="78" value="cancel" style="text;html=1;strokeColor=none;fillColor=none;align=center;verticalAlign=middle;whiteSpace=wrap;rounded=0;fontSize=30;startSize=20;" parent="41" vertex="1">
                    <mxGeometry x="1581" y="71" width="60" height="30" as="geometry"/>
                </mxCell>
                <mxCell id="83" value="url&lt;br&gt;/apiversian1/divar/requstacess" style="whiteSpace=wrap;html=1;fontSize=25;fillColor=#60a917;strokeColor=#2D7600;fontColor=#ffffff;startSize=20;" parent="41" vertex="1">
                    <mxGeometry x="2049" y="179" width="395" height="100" as="geometry"/>
                </mxCell>
                <mxCell id="87" value="divar ? state" style="whiteSpace=wrap;html=1;fontSize=25;fillColor=#60a917;strokeColor=#2D7600;fontColor=#ffffff;startSize=20;" parent="41" vertex="1">
                    <mxGeometry x="2554" y="38" width="177" height="60" as="geometry"/>
                </mxCell>
                <mxCell id="91" value="شرط&lt;br&gt;/divar?statecode" style="whiteSpace=wrap;html=1;fontSize=25;fillColor=#60a917;strokeColor=#2D7600;fontColor=#ffffff;startSize=20;" parent="41" vertex="1">
                    <mxGeometry x="2554" y="145" width="227" height="60" as="geometry"/>
                </mxCell>
                <mxCell id="105" value="ok" style="text;html=1;strokeColor=none;fillColor=none;align=center;verticalAlign=middle;whiteSpace=wrap;rounded=0;fontSize=30;startSize=20;" parent="41" vertex="1">
                    <mxGeometry x="1431" y="255" width="60" height="30" as="geometry"/>
                </mxCell>
                <mxCell id="110" style="edgeStyle=none;html=1;exitX=1;exitY=0.5;exitDx=0;exitDy=0;entryX=0;entryY=0.5;entryDx=0;entryDy=0;" parent="41" source="108" target="74" edge="1">
                    <mxGeometry relative="1" as="geometry"/>
                </mxCell>
                <mxCell id="108" value="&lt;span style=&quot;font-size: 30px;&quot;&gt;Token + state&lt;/span&gt;" style="whiteSpace=wrap;html=1;fontSize=25;fillColor=#60a917;strokeColor=#2D7600;fontColor=#ffffff;startSize=20;" parent="41" vertex="1">
                    <mxGeometry x="661" y="63" width="232" height="86" as="geometry"/>
                </mxCell>
                <mxCell id="42" value="BackEnd" style="swimlane;startSize=34;horizontal=0;fontSize=25;" parent="2" vertex="1">
                    <mxGeometry x="51" y="676" width="3139" height="318" as="geometry">
                        <mxRectangle x="20" y="590" width="2151" height="26" as="alternateBounds"/>
                    </mxGeometry>
                </mxCell>
                <mxCell id="62" value="&lt;span style=&quot;font-size: 30px;&quot;&gt;Redirect Url&lt;/span&gt;" style="whiteSpace=wrap;html=1;fontSize=25;fillColor=#60a917;strokeColor=#2D7600;fontColor=#ffffff;startSize=20;" parent="42" vertex="1">
                    <mxGeometry x="661" y="126" width="232" height="86" as="geometry"/>
                </mxCell>
                <mxCell id="79" value="Api call&lt;br&gt;/divar requestAccess" style="whiteSpace=wrap;html=1;fontSize=25;fillColor=#60a917;strokeColor=#2D7600;fontColor=#ffffff;startSize=20;" parent="42" vertex="1">
                    <mxGeometry x="1535" y="112" width="258" height="100" as="geometry"/>
                </mxCell>
                <mxCell id="95" value="login" style="whiteSpace=wrap;html=1;fontSize=25;fillColor=#60a917;strokeColor=#2D7600;fontColor=#ffffff;startSize=20;" parent="42" vertex="1">
                    <mxGeometry x="2884" y="117" width="152" height="60" as="geometry"/>
                </mxCell>
                <mxCell id="54" value="Divar" style="swimlane;startSize=34;horizontal=0;fontSize=25;" parent="2" vertex="1">
                    <mxGeometry x="51" y="994" width="3139" height="318" as="geometry">
                        <mxRectangle x="20" y="590" width="2151" height="26" as="alternateBounds"/>
                    </mxGeometry>
                </mxCell>
                <mxCell id="60" value="&lt;font style=&quot;font-size: 30px;&quot;&gt;Api call&lt;/font&gt;" style="whiteSpace=wrap;html=1;fontSize=25;fillColor=#60a917;strokeColor=#2D7600;fontColor=#ffffff;startSize=20;" parent="54" vertex="1">
                    <mxGeometry x="369" y="128" width="232" height="86" as="geometry"/>
                </mxCell>
                <mxCell id="85" value="ok / cancel" style="rhombus;whiteSpace=wrap;html=1;fontSize=25;fillColor=#a20025;strokeColor=#6F0000;fontColor=#ffffff;startSize=20;" parent="54" vertex="1">
                    <mxGeometry x="2394" y="47" width="148" height="142" as="geometry"/>
                </mxCell>
                <mxCell id="93" value="انصراف" style="text;html=1;strokeColor=none;fillColor=none;align=center;verticalAlign=middle;whiteSpace=wrap;rounded=0;fontSize=30;startSize=20;" parent="54" vertex="1">
                    <mxGeometry x="2354" y="14" width="108" height="30" as="geometry"/>
                </mxCell>
                <mxCell id="89" value="تایید اولیه" style="text;html=1;strokeColor=none;fillColor=none;align=center;verticalAlign=middle;whiteSpace=wrap;rounded=0;fontSize=30;startSize=20;" parent="54" vertex="1">
                    <mxGeometry x="2539" y="76" width="108" height="30" as="geometry"/>
                </mxCell>
                <mxCell id="61" value="" style="edgeStyle=orthogonalEdgeStyle;html=1;fontSize=30;startSize=20;" parent="2" source="57" target="60" edge="1">
                    <mxGeometry relative="1" as="geometry"/>
                </mxCell>
                <mxCell id="63" value="" style="edgeStyle=orthogonalEdgeStyle;html=1;fontSize=30;startSize=20;" parent="2" source="60" target="62" edge="1">
                    <mxGeometry relative="1" as="geometry"/>
                </mxCell>
                <mxCell id="80" value="" style="edgeStyle=orthogonalEdgeStyle;html=1;fontSize=30;startSize=20;" parent="2" source="74" target="79" edge="1">
                    <mxGeometry relative="1" as="geometry">
                        <Array as="points">
                            <mxPoint x="1420" y="838"/>
                        </Array>
                    </mxGeometry>
                </mxCell>
                <mxCell id="84" value="" style="edgeStyle=orthogonalEdgeStyle;html=1;fontSize=30;startSize=20;" parent="2" source="79" target="83" edge="1">
                    <mxGeometry relative="1" as="geometry"/>
                </mxCell>
                <mxCell id="86" value="" style="edgeStyle=orthogonalEdgeStyle;html=1;fontSize=30;startSize=20;entryX=0;entryY=0.5;entryDx=0;entryDy=0;" parent="2" source="83" target="85" edge="1">
                    <mxGeometry relative="1" as="geometry">
                        <mxPoint x="2440" y="1119" as="targetPoint"/>
                        <Array as="points">
                            <mxPoint x="2351" y="1119"/>
                            <mxPoint x="2445" y="1119"/>
                        </Array>
                    </mxGeometry>
                </mxCell>
                <mxCell id="90" style="edgeStyle=orthogonalEdgeStyle;html=1;exitX=0.5;exitY=0;exitDx=0;exitDy=0;entryX=0;entryY=0.75;entryDx=0;entryDy=0;fontSize=30;startSize=20;" parent="2" source="85" target="87" edge="1">
                    <mxGeometry relative="1" as="geometry"/>
                </mxCell>
                <mxCell id="92" style="edgeStyle=orthogonalEdgeStyle;html=1;exitX=1;exitY=0.5;exitDx=0;exitDy=0;entryX=0.5;entryY=1;entryDx=0;entryDy=0;fontSize=30;startSize=20;" parent="2" source="85" target="91" edge="1">
                    <mxGeometry relative="1" as="geometry"/>
                </mxCell>
                <mxCell id="96" value="" style="edgeStyle=orthogonalEdgeStyle;html=1;fontSize=30;startSize=20;" parent="2" source="91" target="95" edge="1">
                    <mxGeometry relative="1" as="geometry"/>
                </mxCell>
                <mxCell id="107" value="" style="edgeStyle=orthogonalEdgeStyle;html=1;" parent="2" source="95" target="106" edge="1">
                    <mxGeometry relative="1" as="geometry">
                        <Array as="points">
                            <mxPoint x="3082" y="502"/>
                            <mxPoint x="3082" y="502"/>
                        </Array>
                    </mxGeometry>
                </mxCell>
                <mxCell id="109" value="" style="edgeStyle=none;html=1;" parent="2" source="62" target="108" edge="1">
                    <mxGeometry relative="1" as="geometry"/>
                </mxCell>
            </root>
        </mxGraphModel>
    </diagram>
</mxfile>